<svg width="692" height="142" viewBox="0 0 692 142" fill="none" xmlns="http://www.w3.org/2000/svg" xmlns:xlink="http://www.w3.org/1999/xlink">
<path d="M230.962,73.799L219.413,67.611C216.24,73.553 212.934,78.78 212.711,78.959L210.7,82.221L208.645,78.982C208.489,78.713 204.468,72.436 201.027,65.779C200.966,65.707 200.92,65.624 200.893,65.533L177.102,74.804C176.327,75.109 175.643,75.606 175.115,76.248C174.586,76.891 174.23,77.657 174.08,78.476C173.93,79.295 173.992,80.138 174.258,80.926C174.525,81.714 174.989,82.421 175.605,82.98L195.711,101.276C196.516,102.005 197.541,102.447 198.624,102.532C199.707,102.616 200.788,102.34 201.697,101.745L231.297,82.198C232.007,81.736 232.585,81.097 232.974,80.344C233.363,79.591 233.55,78.75 233.516,77.903C233.483,77.057 233.229,76.233 232.782,75.514C232.334,74.794 231.707,74.203 230.962,73.799L230.962,73.799Z" fill="#FFFFFF"/>
<path d="M210.7,53.695C211.013,53.695 211.32,53.602 211.581,53.428C211.842,53.254 212.045,53.006 212.165,52.716C212.285,52.426 212.316,52.107 212.255,51.8C212.194,51.492 212.043,51.209 211.821,50.988C211.599,50.766 211.317,50.615 211.009,50.553C210.701,50.492 210.382,50.524 210.093,50.644C209.803,50.764 209.555,50.967 209.381,51.228C209.207,51.489 209.114,51.795 209.114,52.109C209.114,52.317 209.155,52.524 209.234,52.716C209.314,52.908 209.431,53.083 209.578,53.231C209.725,53.378 209.9,53.495 210.093,53.574C210.285,53.654 210.491,53.695 210.7,53.695Z" fill="#FFFFFF"/>
<path d="M203.775,65.869C207.037,72.035 210.633,77.664 210.633,77.664C210.633,77.664 213.672,72.906 216.71,67.321C216.844,67.031 217.022,66.763 217.179,66.472C220.061,61.155 222.741,55.302 222.741,52.108C222.741,48.897 221.466,45.817 219.195,43.546C216.924,41.276 213.845,40 210.633,40C207.422,40 204.342,41.276 202.072,43.546C199.801,45.817 198.525,48.897 198.525,52.108C198.525,54.9 200.759,59.86 203.127,64.663L203.775,65.869ZM210.633,47.997C211.434,47.993 212.218,48.226 212.886,48.668C213.554,49.11 214.075,49.74 214.385,50.478C214.694,51.216 214.778,52.03 214.624,52.816C214.471,53.602 214.087,54.324 213.523,54.892C212.958,55.46 212.238,55.847 211.453,56.005C210.668,56.163 209.854,56.084 209.114,55.779C208.373,55.473 207.741,54.955 207.295,54.29C206.85,53.624 206.612,52.842 206.612,52.041C206.63,50.972 207.07,49.954 207.836,49.209C208.602,48.464 209.632,48.053 210.7,48.065L210.633,47.997Z" fill="#FFFFFF"/>
<g opacity="0.1">
<path d="M520,71C520,88.121 504.778,102 486,102C467.222,102 452,88.121 452,71C452,53.879 467.222,40 486,40C504.778,40 520,53.879 520,71Z" stroke="#3498C8" stroke-width="1" stroke-miterlimit="3.999327"/>
</g>
<g opacity="0.1">
<path d="M238,71C238,88.121 223.225,102 205,102C186.775,102 172,88.121 172,71C172,53.879 186.775,40 205,40C223.225,40 238,53.879 238,71Z" stroke="#3498C8" stroke-width="1" stroke-miterlimit="3.999327"/>
</g>
<g opacity="0.1">
<path d="M102,71C102,88.121 87.225,102 69,102C50.775,102 36,88.121 36,71C36,53.879 50.775,40 69,40C87.225,40 102,53.879 102,71Z" stroke="#3498C8" stroke-width="1" stroke-miterlimit="3.999327"/>
</g>
<path d="M626,52.188C621.191,52.188 617.292,55.909 617.292,60.5C617.292,65.091 621.191,68.813 626,68.813C630.81,68.813 634.708,65.091 634.708,60.5C634.708,55.909 630.81,52.188 626,52.188ZM620.042,60.5C620.042,57.359 622.709,54.813 626,54.813C629.291,54.813 631.958,57.359 631.958,60.5C631.958,63.641 629.291,66.188 626,66.188C622.709,66.188 620.042,63.641 620.042,60.5Z" clip-rule="evenodd" fill-rule="evenodd" fill="#FAFAFA"/>
<path d="M620.5,71.438C615.691,71.438 611.792,75.159 611.792,79.75C611.792,84.341 615.691,88.063 620.5,88.063L631.5,88.063C636.31,88.063 640.208,84.341 640.208,79.75C640.208,75.159 636.31,71.438 631.5,71.438L620.5,71.438ZM614.542,79.75C614.542,76.609 617.209,74.063 620.5,74.063L631.5,74.063C634.791,74.063 637.458,76.609 637.458,79.75C637.458,82.891 634.791,85.438 631.5,85.438L620.5,85.438C617.209,85.438 614.542,82.891 614.542,79.75Z" clip-rule="evenodd" fill-rule="evenodd" fill="#FAFAFA"/>
<g opacity="0.1">
<path d="M380,71C380,88.121 364.778,102 346,102C327.222,102 312,88.121 312,71C312,53.879 327.222,40 346,40C364.778,40 380,53.879 380,71Z" stroke="#3498C8" stroke-width="1" stroke-miterlimit="3.999327"/>
</g>
<rect  x="0" y="0" width="692" height="142" rx="40" fill="#FFFFFF" fill-opacity="0.05"/>
<g opacity="0.1">
<path d="M660,71C660,88.121 644.778,102 626,102C607.222,102 592,88.121 592,71C592,53.879 607.222,40 626,40C644.778,40 660,53.879 660,71Z" stroke="#3498C8" stroke-width="1" stroke-miterlimit="3.999327"/>
</g>
<path d="M489.852,52.189C488.041,52.156 486.028,52.736 482.723,53.688L482.292,53.812C480.998,54.184 480.202,54.414 479.465,54.742C477.942,55.42 476.611,56.409 475.575,57.634C475.074,58.226 474.667,58.891 474.005,59.973L469.318,67.631C467.826,70.069 466.915,71.557 466.566,73.019C465.794,76.251 466.811,79.623 469.287,82.038C470.407,83.131 472.024,83.983 474.673,85.379L475.175,85.644C477.823,87.041 479.44,87.893 481.037,88.232C484.565,88.982 488.272,88.101 490.952,85.874C492.165,84.867 493.12,83.403 494.686,81.004L499.607,73.469C500.302,72.405 500.729,71.75 501.041,71.058C501.684,69.626 501.957,68.079 501.838,66.535C501.781,65.789 501.601,65.045 501.307,63.835L501.209,63.433C500.459,60.344 500.003,58.462 499.066,57.046C497.111,54.091 493.633,52.257 489.852,52.189ZM483.27,56.283C486.993,55.211 488.519,54.79 489.795,54.813C492.59,54.864 495.16,56.219 496.606,58.403C497.266,59.401 497.629,60.818 498.474,64.298C498.802,65.646 498.93,66.19 498.97,66.719C499.058,67.86 498.856,69.003 498.381,70.061C498.16,70.551 497.851,71.032 497.077,72.218L492.365,79.432C490.604,82.131 489.872,83.222 489.017,83.933C487.037,85.578 484.297,86.23 481.689,85.675C480.562,85.436 479.341,84.809 476.361,83.238C473.382,81.668 472.176,81.015 471.386,80.244C469.556,78.459 468.804,75.967 469.375,73.578C469.621,72.547 470.291,71.423 471.969,68.681L476.457,61.348C477.194,60.143 477.495,59.658 477.85,59.239C478.616,58.334 479.6,57.602 480.725,57.101C481.247,56.869 481.828,56.698 483.27,56.283Z" clip-rule="evenodd" fill-rule="evenodd" fill="#FAFAFA"/>
<path d="M483.575,62.611C482.252,64.703 483.037,67.379 485.329,68.587C487.621,69.795 490.552,69.078 491.875,66.986C493.198,64.893 492.413,62.218 490.121,61.009C487.829,59.801 484.899,60.518 483.575,62.611ZM486.065,63.923C485.536,64.76 485.85,65.831 486.767,66.314C487.684,66.797 488.856,66.51 489.385,65.673C489.914,64.836 489.6,63.766 488.684,63.283C487.767,62.8 486.595,63.086 486.065,63.923Z" clip-rule="evenodd" fill-rule="evenodd" fill="#FAFAFA"/>
<path d="M350.125,55.25C350.125,54.525 350.741,53.938 351.5,53.938L353.333,53.938C359.155,53.938 363.875,58.443 363.875,64L363.875,65.75C363.875,66.475 363.259,67.063 362.5,67.063C361.741,67.063 361.125,66.475 361.125,65.75L361.125,64C361.125,59.892 357.637,56.563 353.333,56.563L351.5,56.563C350.741,56.563 350.125,55.975 350.125,55.25Z" fill="#FAFAFA"/>
<path d="M328.125,64C328.125,58.443 332.845,53.938 338.667,53.938L340.5,53.938C341.259,53.938 341.875,54.525 341.875,55.25C341.875,55.975 341.259,56.563 340.5,56.563L338.667,56.563C334.363,56.563 330.875,59.892 330.875,64L330.875,65.75C330.875,66.475 330.259,67.063 329.5,67.063C328.741,67.063 328.125,66.475 328.125,65.75L328.125,64Z" fill="#FAFAFA"/>
<path d="M333.625,64C333.625,61.342 335.882,59.188 338.667,59.188C341.451,59.188 343.708,61.342 343.708,64C343.708,66.658 341.451,68.813 338.667,68.813C335.882,68.813 333.625,66.658 333.625,64Z" fill="#FAFAFA"/>
<path d="M350.125,64C350.125,62.309 351.561,60.938 353.333,60.938C355.105,60.938 356.542,62.309 356.542,64C356.542,65.691 355.105,67.063 353.333,67.063C351.561,67.063 350.125,65.691 350.125,64Z" fill="#FAFAFA"/>
<path d="M348.292,78C348.292,75.342 350.549,73.188 353.333,73.188C356.118,73.188 358.375,75.342 358.375,78C358.375,80.658 356.118,82.813 353.333,82.813C350.549,82.813 348.292,80.658 348.292,78Z" fill="#FAFAFA"/>
<path d="M329.5,74.938C330.259,74.938 330.875,75.525 330.875,76.25L330.875,78C330.875,82.108 334.363,85.438 338.667,85.438L340.5,85.438C341.259,85.438 341.875,86.025 341.875,86.75C341.875,87.475 341.259,88.063 340.5,88.063L338.667,88.063C332.845,88.063 328.125,83.557 328.125,78L328.125,76.25C328.125,75.525 328.741,74.938 329.5,74.938Z" fill="#FAFAFA"/>
<path d="M362.5,74.938C363.259,74.938 363.875,75.525 363.875,76.25L363.875,78C363.875,83.557 359.155,88.063 353.333,88.063L351.5,88.063C350.741,88.063 350.125,87.475 350.125,86.75C350.125,86.025 350.741,85.438 351.5,85.438L353.333,85.438C357.637,85.438 361.125,82.108 361.125,78L361.125,76.25C361.125,75.525 361.741,74.938 362.5,74.938Z" fill="#FAFAFA"/>
<path d="M57.538,58.69C52.649,62.08 50.205,63.776 49.245,66.28C49.167,66.481 49.098,66.684 49.037,66.89C48.272,69.455 49.205,72.198 51.073,77.684C52.94,83.171 53.874,85.914 56.072,87.559C56.249,87.691 56.43,87.817 56.616,87.936C57.398,88.438 58.261,88.771 59.292,88.991L59.292,82.934C59.292,78.344 63.191,74.622 68,74.622C72.809,74.622 76.708,78.344 76.708,82.934L76.708,88.991C77.739,88.771 78.602,88.438 79.384,87.936C79.57,87.817 79.751,87.691 79.928,87.559C82.126,85.914 83.06,83.171 84.927,77.684C86.795,72.198 87.729,69.455 86.963,66.89C86.902,66.684 86.833,66.481 86.756,66.28C85.795,63.776 83.351,62.08 78.462,58.69C73.572,55.299 71.128,53.604 68.336,53.506C68.112,53.498 67.888,53.498 67.664,53.506C64.872,53.604 62.428,55.299 57.538,58.69Z" fill="#FAFAFA"/>
<path d="M73.958,89.328L73.958,82.934C73.958,79.793 71.291,77.247 68,77.247C64.709,77.247 62.042,79.793 62.042,82.934L62.042,89.328C63.642,89.424 65.578,89.424 68,89.424C70.422,89.424 72.358,89.424 73.958,89.328Z" fill="#FAFAFA"/>
<path d="M230.962,73.799L219.413,67.611C216.24,73.553 212.934,78.78 212.711,78.959L210.7,82.221L208.645,78.982C208.489,78.713 204.468,72.436 201.027,65.779C200.966,65.707 200.92,65.624 200.893,65.533L177.102,74.804C176.327,75.109 175.643,75.606 175.115,76.248C174.586,76.891 174.23,77.657 174.08,78.476C173.93,79.295 173.992,80.138 174.258,80.926C174.525,81.714 174.989,82.421 175.605,82.98L195.711,101.276C196.516,102.005 197.541,102.447 198.624,102.532C199.707,102.616 200.788,102.34 201.697,101.745L231.297,82.198C232.007,81.736 232.585,81.097 232.974,80.344C233.363,79.591 233.55,78.75 233.516,77.903C233.483,77.057 233.229,76.233 232.782,75.514C232.334,74.794 231.707,74.203 230.962,73.799L230.962,73.799Z" fill="#FFFFFF"/>
<path d="M210.7,53.695C211.013,53.695 211.32,53.602 211.581,53.428C211.842,53.254 212.045,53.006 212.165,52.716C212.285,52.426 212.316,52.107 212.255,51.8C212.194,51.492 212.043,51.209 211.821,50.988C211.599,50.766 211.317,50.615 211.009,50.553C210.701,50.492 210.382,50.524 210.093,50.644C209.803,50.764 209.555,50.967 209.381,51.228C209.207,51.489 209.114,51.795 209.114,52.109C209.114,52.317 209.155,52.524 209.234,52.716C209.314,52.908 209.431,53.083 209.578,53.231C209.725,53.378 209.9,53.495 210.093,53.574C210.285,53.654 210.491,53.695 210.7,53.695Z" fill="#FFFFFF"/>
<path d="M203.775,65.869C207.037,72.035 210.633,77.664 210.633,77.664C210.633,77.664 213.672,72.906 216.71,67.321C216.844,67.031 217.022,66.763 217.179,66.472C220.061,61.155 222.741,55.302 222.741,52.108C222.741,48.897 221.466,45.817 219.195,43.546C216.924,41.276 213.845,40 210.633,40C207.422,40 204.342,41.276 202.072,43.546C199.801,45.817 198.525,48.897 198.525,52.108C198.525,54.9 200.759,59.86 203.127,64.663L203.775,65.869ZM210.633,47.997C211.434,47.993 212.218,48.226 212.886,48.668C213.554,49.11 214.075,49.74 214.385,50.478C214.694,51.216 214.778,52.03 214.624,52.816C214.471,53.602 214.087,54.324 213.523,54.892C212.958,55.46 212.238,55.847 211.453,56.005C210.668,56.163 209.854,56.084 209.114,55.779C208.373,55.473 207.741,54.955 207.295,54.29C206.85,53.624 206.612,52.842 206.612,52.041C206.63,50.972 207.07,49.954 207.836,49.209C208.602,48.464 209.632,48.053 210.7,48.065L210.633,47.997Z" fill="#FFFFFF"/>
<g opacity="0.1">
<path d="M238,71C238,88.121 223.225,102 205,102C186.775,102 172,88.121 172,71C172,53.879 186.775,40 205,40C223.225,40 238,53.879 238,71Z" stroke="#3498C8" stroke-width="1" stroke-miterlimit="3.999327"/>
</g>
<g opacity="0.1">
<path d="M102,71C102,88.121 87.225,102 69,102C50.775,102 36,88.121 36,71C36,53.879 50.775,40 69,40C87.225,40 102,53.879 102,71Z" stroke="#3498C8" stroke-width="1" stroke-miterlimit="3.999327"/>
</g>
<g opacity="0.1">
<path d="M380,71C380,88.121 364.778,102 346,102C327.222,102 312,88.121 312,71C312,53.879 327.222,40 346,40C364.778,40 380,53.879 380,71Z" stroke="#3498C8" stroke-width="1" stroke-miterlimit="3.999327"/>
</g>
<g opacity="0.1">
<path d="M520,71C520,88.121 504.778,102 486,102C467.222,102 452,88.121 452,71C452,53.879 467.222,40 486,40C504.778,40 520,53.879 520,71Z" stroke="#3498C8" stroke-width="1" stroke-miterlimit="3.999327"/>
</g>
<g opacity="0.1">
<path d="M660,71C660,88.121 644.778,102 626,102C607.222,102 592,88.121 592,71C592,53.879 607.222,40 626,40C644.778,40 660,53.879 660,71Z" stroke="#3498C8" stroke-width="1" stroke-miterlimit="3.999327"/>
</g>
</svg>
