<svg width="54" height="54" viewBox="0 0 54 54" fill="none" xmlns="http://www.w3.org/2000/svg" xmlns:xlink="http://www.w3.org/1999/xlink">
<path d="M19.008,1.996C13.726,3.829 9.17,7.307 6.01,11.921C2.85,16.534 1.253,22.038 1.454,27.626C1.654,33.214 3.64,38.591 7.122,42.966C10.604,47.341 15.397,50.485 20.797,51.935C25.175,53.065 29.762,53.114 34.163,52.08C38.151,51.184 41.837,49.268 44.862,46.52C48.009,43.572 50.294,39.822 51.47,35.673C52.749,31.161 52.976,26.416 52.135,21.802L27.55,21.802L27.55,32.001L41.788,32.001C41.504,33.627 40.894,35.18 39.996,36.565C39.097,37.951 37.928,39.141 36.559,40.064C34.821,41.214 32.861,41.988 30.805,42.336C28.744,42.719 26.629,42.719 24.568,42.336C22.479,41.904 20.502,41.042 18.765,39.803C15.973,37.827 13.877,35.02 12.775,31.782C11.655,28.483 11.655,24.907 12.775,21.608C13.559,19.296 14.856,17.191 16.567,15.45C18.526,13.421 21.006,11.97 23.734,11.257C26.463,10.545 29.335,10.598 32.036,11.41C34.146,12.057 36.075,13.189 37.67,14.714C39.276,13.117 40.878,11.516 42.478,9.911C43.304,9.047 44.205,8.225 45.018,7.341C42.584,5.076 39.726,3.313 36.609,2.153C30.932,0.092 24.721,0.037 19.008,1.996Z" fill="#FFFFFF"/>
<path d="M19.008,1.996C24.72,0.035 30.931,0.089 36.609,2.149C39.726,3.317 42.583,5.088 45.014,7.362C44.188,8.246 43.317,9.072 42.474,9.931C40.871,11.531 39.27,13.126 37.67,14.714C36.075,13.189 34.146,12.057 32.036,11.41C29.336,10.595 26.464,10.539 23.735,11.249C21.005,11.958 18.524,13.406 16.563,15.433C14.851,17.174 13.555,19.28 12.771,21.592L4.208,14.962C7.273,8.884 12.58,4.235 19.008,1.996Z" fill="#E33629"/>
<path d="M1.937,21.53C2.397,19.249 3.161,17.04 4.209,14.962L12.771,21.608C11.651,24.907 11.651,28.483 12.771,31.782C9.918,33.985 7.064,36.199 4.209,38.424C1.586,33.204 0.787,27.257 1.937,21.53Z" fill="#F8BD00"/>
<path d="M27.55,21.798L52.136,21.798C52.976,26.412 52.749,31.157 51.471,35.669C50.294,39.818 48.009,43.568 44.862,46.516C42.098,44.36 39.323,42.22 36.559,40.064C37.929,39.14 39.099,37.948 39.997,36.562C40.896,35.175 41.505,33.621 41.788,31.993L27.55,31.993C27.546,28.597 27.55,25.198 27.55,21.798Z" fill="#587DBD"/>
<path d="M4.204,38.424C7.06,36.221 9.914,34.007 12.767,31.782C13.871,35.021 15.97,37.829 18.765,39.804C20.508,41.036 22.488,41.891 24.581,42.315C26.642,42.698 28.756,42.698 30.818,42.315C32.873,41.968 34.833,41.194 36.572,40.043C39.335,42.199 42.111,44.339 44.874,46.495C41.85,49.245 38.164,51.162 34.176,52.059C29.774,53.094 25.187,53.044 20.809,51.914C17.347,50.99 14.112,49.36 11.309,47.127C8.342,44.771 5.919,41.802 4.204,38.424Z" fill="#319F43"/>
</svg>
