<svg width="96" height="50" viewBox="0 0 96 50" fill="none" xmlns="http://www.w3.org/2000/svg" xmlns:xlink="http://www.w3.org/1999/xlink">
<path d="M0,-0.552L94.345,-0.552L94.345,3.276L0,3.276L0,-0.552ZM0,7.093L94.345,7.093L94.345,10.921L0,10.921L0,7.093ZM0,14.728L94.345,14.728L94.345,18.555L0,18.555L0,14.728ZM0,22.362L94.345,22.362L94.345,26.19L0,26.19L0,22.362ZM0,30.017L94.345,30.017L94.345,33.824L0,33.824L0,30.017ZM0,37.641L94.345,37.641L94.345,41.469L0,41.469L0,37.641ZM0,45.276L94.345,45.276L94.345,49.103L0,49.103L0,45.276Z" clip-rule="evenodd" fill-rule="evenodd" fill="#BD3D44"/>
<path d="M0,3.276L94.345,3.276L94.345,7.093L0,7.093L0,3.276ZM0,10.91L94.345,10.91L94.345,14.728L0,14.728L0,10.91ZM0,18.545L94.345,18.545L94.345,22.372L0,22.372L0,18.545ZM0,26.19L94.345,26.19L94.345,30.017L0,30.017L0,26.19ZM0,33.824L94.345,33.824L94.345,37.652L0,37.652L0,33.824ZM0,41.459L94.345,41.459L94.345,45.286L0,45.286L0,41.459Z" clip-rule="evenodd" fill-rule="evenodd" fill="#FFFFFF"/>
<rect  x="0" y="-0.552" width="37.738" height="26.741" fill="#192F5D"/>
<path d="M3.145,0.586L3.497,1.652L4.593,1.652L3.703,2.303L4.045,3.369L3.145,2.707L2.255,3.359L2.586,2.303L1.686,1.652L2.814,1.652L3.145,0.586ZM9.434,0.586L9.776,1.652L10.893,1.652L9.993,2.303L10.324,3.369L9.434,2.707L8.534,3.359L8.876,2.303L7.986,1.652L9.083,1.652L9.434,0.586ZM15.724,0.586L16.066,1.652L17.172,1.652L16.283,2.303L16.624,3.369L15.724,2.707L14.824,3.359L15.166,2.303L14.266,1.652L15.383,1.652L15.724,0.586ZM22.014,0.586L22.355,1.652L23.472,1.652L22.572,2.303L22.914,3.369L22.014,2.707L21.114,3.359L21.466,2.303L20.555,1.652L21.662,1.652L22.014,0.586ZM28.303,0.586L28.645,1.652L29.752,1.652L28.862,2.303L29.203,3.369L28.303,2.707L27.403,3.359L27.745,2.303L26.855,1.652L27.962,1.652L28.303,0.586ZM34.593,0.586L34.934,1.652L36.052,1.652L35.141,2.303L35.493,3.369L34.593,2.707L33.693,3.359L34.045,2.303L33.134,1.652L34.252,1.652L34.593,0.586ZM6.29,3.276L6.631,4.331L7.759,4.331L6.859,4.972L7.19,6.038L6.31,5.386L5.41,6.038L5.731,4.972L4.862,4.331L5.969,4.331L6.29,3.276ZM12.579,3.276L12.931,4.331L14.038,4.331L13.128,4.972L13.479,6.038L12.579,5.386L11.679,6.038L12.021,4.972L11.121,4.331L12.238,4.331L12.579,3.276ZM18.869,3.276L19.21,4.331L20.328,4.331L19.428,4.972L19.769,6.038L18.869,5.386L17.969,6.038L18.31,4.972L17.421,4.331L18.517,4.331L18.869,3.276ZM25.159,3.276L25.51,4.331L26.617,4.331L25.707,4.972L26.059,6.038L25.159,5.386L24.269,6.038L24.6,4.972L23.7,4.331L24.828,4.331L25.159,3.276ZM31.448,3.276L31.79,4.331L32.907,4.331L32.007,4.972L32.348,6.038L31.448,5.386L30.548,6.038L30.89,4.972L30,4.331L31.107,4.331L31.448,3.276ZM3.145,5.924L3.497,7L4.593,7L3.703,7.652L4.045,8.707L3.145,8.055L2.255,8.707L2.586,7.652L1.686,7L2.814,7L3.145,5.924ZM9.434,5.924L9.776,7L10.893,7L9.993,7.652L10.324,8.707L9.434,8.055L8.534,8.707L8.876,7.641L7.986,6.99L9.083,6.99L9.434,5.924ZM15.724,5.924L16.066,6.99L17.172,6.99L16.283,7.641L16.624,8.697L15.724,8.045L14.824,8.697L15.166,7.631L14.266,6.979L15.383,6.979L15.724,5.924ZM22.014,5.924L22.355,6.99L23.472,6.99L22.572,7.641L22.914,8.697L22.014,8.045L21.114,8.697L21.466,7.631L20.555,6.979L21.662,6.979L22.014,5.924ZM28.303,5.924L28.645,6.99L29.752,6.99L28.862,7.641L29.203,8.697L28.303,8.045L27.403,8.697L27.745,7.631L26.855,6.979L27.962,6.979L28.303,5.924ZM34.593,5.924L34.934,6.99L36.052,6.99L35.141,7.641L35.493,8.697L34.593,8.045L33.693,8.697L34.045,7.631L33.134,6.979L34.252,6.979L34.593,5.924ZM6.29,8.614L6.631,9.669L7.759,9.669L6.859,10.321L7.2,11.386L6.3,10.724L5.4,11.376L5.741,10.321L4.852,9.669L5.959,9.669L6.29,8.614ZM12.579,8.614L12.931,9.669L14.038,9.669L13.128,10.321L13.479,11.386L12.579,10.724L11.679,11.376L12.021,10.321L11.121,9.669L12.238,9.669L12.579,8.614ZM18.869,8.614L19.21,9.669L20.328,9.669L19.428,10.321L19.769,11.386L18.869,10.724L17.969,11.376L18.31,10.321L17.421,9.669L18.517,9.669L18.869,8.614ZM25.159,8.614L25.51,9.669L26.617,9.669L25.717,10.321L26.059,11.386L25.159,10.724L24.269,11.376L24.6,10.321L23.7,9.669L24.828,9.669L25.159,8.614ZM31.448,8.614L31.79,9.669L32.907,9.669L32.007,10.321L32.348,11.386L31.448,10.724L30.548,11.376L30.89,10.321L30,9.669L31.107,9.669L31.448,8.614ZM3.145,11.293L3.497,12.348L4.593,12.348L3.703,13L4.045,14.066L3.145,13.403L2.255,14.055L2.586,13L1.686,12.348L2.814,12.348L3.145,11.293ZM9.434,11.293L9.776,12.348L10.893,12.348L9.993,13L10.324,14.055L9.434,13.403L8.534,14.055L8.876,13L7.986,12.348L9.083,12.348L9.434,11.293ZM15.724,11.293L16.066,12.348L17.172,12.348L16.283,13L16.624,14.066L15.724,13.403L14.824,14.055L15.166,13L14.266,12.348L15.383,12.348L15.724,11.293ZM22.014,11.293L22.355,12.348L23.472,12.348L22.572,13L22.914,14.066L22.014,13.403L21.114,14.055L21.466,13L20.555,12.348L21.662,12.348L22.014,11.293ZM28.303,11.293L28.645,12.348L29.752,12.348L28.862,13L29.203,14.066L28.303,13.403L27.403,14.055L27.745,13L26.855,12.348L27.962,12.348L28.303,11.293ZM34.593,11.293L34.934,12.348L36.052,12.348L35.141,13L35.493,14.066L34.593,13.403L33.693,14.055L34.034,13L33.124,12.348L34.241,12.348L34.593,11.293ZM6.29,13.962L6.631,15.028L7.759,15.028L6.859,15.669L7.2,16.734L6.3,16.072L5.4,16.734L5.741,15.669L4.852,15.017L5.959,15.017L6.29,13.962ZM12.579,13.962L12.931,15.028L14.038,15.028L13.128,15.669L13.479,16.734L12.579,16.072L11.679,16.734L12.021,15.669L11.121,15.017L12.238,15.017L12.579,13.962ZM18.869,13.962L19.21,15.028L20.328,15.028L19.428,15.669L19.769,16.734L18.869,16.072L17.969,16.734L18.31,15.669L17.421,15.017L18.517,15.017L18.869,13.962ZM25.159,13.962L25.51,15.028L26.617,15.028L25.717,15.669L26.059,16.734L25.159,16.072L24.269,16.734L24.6,15.669L23.7,15.017L24.828,15.017L25.159,13.962ZM31.448,13.962L31.79,15.028L32.907,15.028L32.007,15.669L32.348,16.734L31.448,16.072L30.548,16.734L30.89,15.669L30,15.017L31.107,15.017L31.448,13.962ZM3.145,16.631L3.497,17.697L4.593,17.697L3.703,18.348L4.045,19.393L3.145,18.752L2.255,19.393L2.586,18.338L1.686,17.686L2.814,17.686L3.145,16.631ZM9.434,16.631L9.776,17.697L10.893,17.697L9.993,18.348L10.334,19.393L9.434,18.752L8.534,19.393L8.886,18.338L7.986,17.686L9.083,17.686L9.434,16.631ZM15.724,16.631L16.066,17.697L17.172,17.697L16.283,18.348L16.624,19.393L15.724,18.752L14.824,19.393L15.166,18.338L14.266,17.686L15.383,17.686L15.724,16.631ZM22.014,16.631L22.355,17.697L23.472,17.697L22.572,18.348L22.914,19.393L22.014,18.752L21.114,19.393L21.466,18.338L20.555,17.686L21.662,17.686L22.014,16.631ZM28.303,16.631L28.645,17.697L29.752,17.697L28.862,18.348L29.203,19.393L28.303,18.752L27.403,19.393L27.745,18.338L26.855,17.686L27.962,17.686L28.303,16.631ZM34.593,16.631L34.934,17.697L36.052,17.697L35.141,18.348L35.493,19.393L34.593,18.752L33.693,19.393L34.045,18.338L33.134,17.686L34.252,17.686L34.593,16.631ZM6.29,19.31L6.631,20.366L7.759,20.366L6.859,21.017L7.2,22.083L6.3,21.421L5.4,22.072L5.741,21.017L4.852,20.366L5.959,20.366L6.29,19.31ZM12.579,19.31L12.931,20.366L14.038,20.366L13.128,21.017L13.479,22.083L12.579,21.421L11.679,22.072L12.021,21.017L11.121,20.366L12.238,20.366L12.579,19.31ZM18.869,19.31L19.21,20.366L20.328,20.366L19.428,21.017L19.769,22.083L18.869,21.421L17.969,22.072L18.31,21.017L17.421,20.366L18.517,20.366L18.869,19.31ZM25.159,19.31L25.51,20.366L26.617,20.366L25.717,21.017L26.059,22.083L25.159,21.421L24.269,22.072L24.6,21.017L23.7,20.366L24.828,20.366L25.159,19.31ZM31.448,19.31L31.79,20.366L32.907,20.366L32.007,21.017L32.348,22.083L31.448,21.421L30.548,22.072L30.89,21.017L30,20.366L31.107,20.366L31.448,19.31ZM3.145,21.99L3.497,23.045L4.593,23.045L3.703,23.697L4.045,24.752L3.145,24.1L2.255,24.752L2.586,23.686L1.686,23.034L2.814,23.034L3.145,21.99ZM9.434,21.99L9.776,23.045L10.893,23.045L9.993,23.697L10.334,24.752L9.434,24.1L8.534,24.752L8.886,23.686L7.986,23.034L9.083,23.034L9.434,21.99ZM15.724,21.99L16.066,23.045L17.172,23.045L16.303,23.697L16.645,24.752L15.745,24.1L14.845,24.752L15.186,23.686L14.286,23.034L15.403,23.034L15.724,21.99ZM22.014,21.99L22.355,23.045L23.472,23.045L22.572,23.697L22.914,24.752L22.014,24.1L21.114,24.752L21.466,23.686L20.555,23.034L21.662,23.034L22.014,21.99ZM28.303,21.99L28.645,23.045L29.752,23.045L28.862,23.697L29.203,24.752L28.303,24.1L27.403,24.752L27.745,23.686L26.855,23.034L27.962,23.034L28.303,21.99ZM34.593,21.99L34.934,23.045L36.052,23.045L35.141,23.697L35.493,24.752L34.593,24.1L33.693,24.752L34.045,23.686L33.134,23.034L34.252,23.034L34.593,21.99Z" clip-rule="evenodd" fill-rule="evenodd" fill="#FFFFFF"/>
</svg>
