<svg width="268" height="242" viewBox="0 0 268 242" fill="none" xmlns="http://www.w3.org/2000/svg" xmlns:xlink="http://www.w3.org/1999/xlink">
<path d="M133.019,226.722C140.383,226.722 146.353,220.752 146.353,213.388C146.353,206.025 140.383,200.055 133.019,200.055C125.655,200.055 119.686,206.025 119.686,213.388C119.686,220.752 125.655,226.722 133.019,226.722Z" fill="#C7C7C7"/>
<path d="M138.886,106.721L113.553,81.521L80.753,48.988L60.086,28.321L35.819,3.921C34.576,2.678 33.1,1.692 31.476,1.019C29.852,0.346 28.111,0 26.353,0C24.595,0 22.854,0.346 21.229,1.019C19.605,1.692 18.129,2.678 16.886,3.921C14.375,6.432 12.965,9.837 12.965,13.388C12.965,16.939 14.375,20.344 16.886,22.855L35.286,41.121L54.753,60.588L84.486,90.455L105.153,110.988L141.686,147.521L178.886,184.855L230.22,236.188C231.458,237.438 232.934,238.43 234.558,239.106C236.184,239.784 237.926,240.132 239.686,240.132C241.446,240.132 243.188,239.784 244.814,239.106C246.438,238.43 247.914,237.438 249.152,236.188C250.402,234.948 251.394,233.474 252.072,231.848C252.748,230.224 253.096,228.482 253.096,226.722C253.096,224.962 252.748,223.218 252.072,221.594C251.394,219.968 250.402,218.494 249.152,217.254L138.886,106.721ZM262.62,65.788C227.892,32.11 181.395,13.31 133.019,13.388C112.892,13.442 92.904,16.729 73.819,23.121L95.419,44.721C121.577,38.185 148.969,38.429 175.006,45.428C201.042,52.427 224.864,65.951 244.22,84.721C246.692,87.104 249.986,88.441 253.42,88.455C255.216,88.448 256.992,88.078 258.642,87.368C260.29,86.658 261.78,85.621 263.02,84.321C265.37,81.784 266.642,78.432 266.568,74.974C266.492,71.516 265.076,68.222 262.62,65.788L262.62,65.788ZM23.953,48.721C16.718,53.924 9.857,59.627 3.419,65.788C1.169,68.29 -0.052,71.55 0.002,74.915C0.055,78.28 1.379,81.5 3.707,83.929C6.035,86.359 9.196,87.818 12.555,88.014C15.915,88.211 19.224,87.13 21.819,84.988C28.469,78.704 35.602,72.953 43.153,67.788L23.953,48.721ZM199.686,135.255C200.92,136.514 202.394,137.517 204.018,138.203C205.644,138.89 207.388,139.247 209.152,139.255C211.758,139.245 214.304,138.472 216.474,137.031C218.646,135.59 220.348,133.544 221.368,131.147C222.39,128.75 222.686,126.106 222.222,123.542C221.756,120.979 220.55,118.607 218.752,116.721C207.632,105.198 194.317,96.017 179.593,89.72C164.869,83.423 149.033,80.136 133.019,80.055L130.886,80.055L162.219,111.388C176.447,116.212 189.3,124.4 199.686,135.255L199.686,135.255ZM72.086,96.855C62.769,102.281 54.244,108.966 46.753,116.721C44.295,119.32 42.971,122.789 43.071,126.365C43.171,129.941 44.687,133.33 47.286,135.788C49.885,138.246 53.354,139.57 56.93,139.47C60.506,139.37 63.895,137.854 66.353,135.255C74.12,127.532 83.136,121.176 93.019,116.455L72.086,96.855ZM86.753,165.388C84.207,167.846 82.741,171.214 82.679,174.752C82.648,176.504 82.962,178.245 83.604,179.875C84.246,181.506 85.202,182.994 86.419,184.255C87.636,185.515 89.09,186.524 90.696,187.223C92.303,187.922 94.032,188.298 95.784,188.329C99.322,188.391 102.74,187.046 105.286,184.588C112.15,178.257 120.978,174.472 130.297,173.866C139.615,173.259 148.859,175.867 156.486,181.255L122.886,147.655C109.302,149.702 96.682,155.895 86.753,165.388L86.753,165.388Z" fill="#C7C7C7"/>
</svg>
