<svg width="52" height="54" viewBox="0 0 52 54" fill="none" xmlns="http://www.w3.org/2000/svg" xmlns:xlink="http://www.w3.org/1999/xlink">
<path d="M51.877,26.693C51.877,12.093 40.041,0.257 25.441,0.257C10.842,0.257 -0.994,12.093 -0.994,26.693C-0.994,39.888 8.673,50.824 21.311,52.808L21.311,34.335L14.599,34.335L14.599,26.693L21.311,26.693L21.311,20.869C21.311,14.244 25.258,10.584 31.296,10.584C34.188,10.584 37.214,11.1 37.214,11.1L37.214,17.606L33.88,17.606C30.596,17.606 29.572,19.644 29.572,21.734L29.572,26.693L36.904,26.693L35.732,34.335L29.572,34.335L29.572,52.808C42.21,50.824 51.877,39.888 51.877,26.693Z" fill="#1877F2"/>
<path d="M35.732,34.335L36.904,26.693L29.572,26.693L29.572,21.734C29.572,19.643 30.596,17.606 33.88,17.606L37.214,17.606L37.214,11.1C37.214,11.1 34.189,10.584 31.296,10.584C25.258,10.584 21.311,14.244 21.311,20.869L21.311,26.693L14.599,26.693L14.599,34.335L21.311,34.335L21.311,52.808C22.677,53.022 24.059,53.129 25.442,53.129C26.825,53.129 28.206,53.022 29.572,52.808L29.572,34.335L35.732,34.335Z" fill="#FFFFFF"/>
</svg>
