<svg width="34" height="32" viewBox="0 0 34 32" fill="none" xmlns="http://www.w3.org/2000/svg" xmlns:xlink="http://www.w3.org/1999/xlink">
<path d="M16.539,31.484L16.539,26.998L25.751,15.808L29.445,20.294L20.233,31.484L16.539,31.484ZM0.897,20.928L0.897,16.705L13.063,16.705L13.063,20.928L0.897,20.928ZM30.661,18.816L26.968,14.33L28.228,12.799C28.547,12.412 28.952,12.218 29.445,12.218C29.937,12.218 30.343,12.412 30.661,12.799L31.921,14.33C32.24,14.717 32.399,15.209 32.399,15.808C32.399,16.406 32.24,16.898 31.921,17.286L30.661,18.816ZM0.897,12.482L0.897,8.26L20.016,8.26L20.016,12.482L0.897,12.482ZM0.897,4.037L0.897,-0.186L20.016,-0.186L20.016,4.037L0.897,4.037Z" fill="#FFFFFF"/>
</svg>
