<svg width="42" height="42" viewBox="0 0 42 42" fill="none" xmlns="http://www.w3.org/2000/svg" xmlns:xlink="http://www.w3.org/1999/xlink">
<path d="M41.707,38.486C38.441,32.843 33.315,28.884 27.359,27.205C30.255,25.733 32.571,23.329 33.933,20.38C35.295,17.43 35.624,14.108 34.867,10.949C34.11,7.79 32.312,4.978 29.761,2.966C27.21,0.955 24.057,-0.139 20.808,-0.139C17.56,-0.139 14.406,0.955 11.855,2.966C9.305,4.978 7.506,7.79 6.749,10.949C5.992,14.108 6.321,17.43 7.683,20.38C9.046,23.329 11.361,25.733 14.257,27.205C8.301,28.882 3.175,32.841 -0.091,38.486C-0.18,38.627 -0.24,38.784 -0.268,38.949C-0.295,39.114 -0.288,39.283 -0.248,39.445C-0.209,39.608 -0.136,39.76 -0.036,39.894C0.064,40.028 0.19,40.14 0.335,40.223C0.48,40.307 0.64,40.36 0.806,40.381C0.972,40.401 1.14,40.387 1.3,40.341C1.461,40.294 1.61,40.215 1.74,40.11C1.869,40.004 1.976,39.873 2.053,39.725C6.021,32.87 13.03,28.779 20.808,28.779C28.586,28.779 35.595,32.87 39.563,39.725C39.64,39.873 39.747,40.004 39.876,40.11C40.006,40.215 40.155,40.294 40.316,40.341C40.476,40.387 40.644,40.401 40.81,40.381C40.976,40.36 41.136,40.307 41.281,40.223C41.426,40.14 41.552,40.028 41.652,39.894C41.753,39.76 41.825,39.608 41.864,39.445C41.904,39.283 41.911,39.114 41.884,38.949C41.857,38.784 41.796,38.627 41.707,38.486ZM8.829,14.322C8.829,11.953 9.532,9.637 10.848,7.667C12.164,5.697 14.035,4.162 16.224,3.255C18.413,2.348 20.821,2.111 23.145,2.573C25.469,3.036 27.603,4.176 29.278,5.852C30.953,7.527 32.094,9.661 32.557,11.985C33.019,14.309 32.781,16.717 31.875,18.906C30.968,21.095 29.433,22.966 27.463,24.282C25.493,25.598 23.177,26.301 20.808,26.301C17.632,26.297 14.588,25.033 12.342,22.788C10.097,20.542 8.833,17.498 8.829,14.322Z" fill="#FFFFFF"/>
</svg>
