<svg width="6" height="14" viewBox="0 0 6 14" fill="none" xmlns="http://www.w3.org/2000/svg" xmlns:xlink="http://www.w3.org/1999/xlink">
<path d="M4.729,12.751C4.588,12.752 4.448,12.721 4.32,12.66C4.192,12.599 4.079,12.511 3.99,12.401L-0.589,6.714C-0.729,6.544 -0.805,6.332 -0.805,6.112C-0.805,5.893 -0.729,5.68 -0.589,5.51L4.151,-0.176C4.312,-0.37 4.543,-0.492 4.794,-0.515C5.045,-0.538 5.294,-0.46 5.488,-0.3C5.681,-0.139 5.803,0.092 5.826,0.343C5.849,0.594 5.772,0.843 5.611,1.037L1.373,6.117L5.469,11.197C5.585,11.336 5.658,11.506 5.681,11.685C5.704,11.865 5.674,12.047 5.597,12.211C5.519,12.374 5.396,12.512 5.242,12.608C5.088,12.704 4.911,12.754 4.729,12.751Z" transform="rotate(360 2.513 6.116)" fill="#00FFDA"/>
</svg>
