<svg width="40" height="36" viewBox="0 0 40 36" fill="none" xmlns="http://www.w3.org/2000/svg" xmlns:xlink="http://www.w3.org/1999/xlink">
<path d="M9.538,4.69C4.649,8.08 2.205,9.776 1.245,12.28C1.167,12.481 1.098,12.684 1.037,12.89C0.272,15.455 1.205,18.198 3.073,23.684C4.94,29.171 5.874,31.914 8.072,33.559C8.249,33.691 8.43,33.817 8.616,33.936C9.398,34.438 10.261,34.771 11.292,34.991L11.292,28.934C11.292,24.344 15.191,20.622 20,20.622C24.809,20.622 28.708,24.344 28.708,28.934L28.708,34.991C29.739,34.771 30.602,34.438 31.384,33.936C31.57,33.817 31.751,33.691 31.928,33.559C34.126,31.914 35.06,29.171 36.927,23.684C38.795,18.198 39.729,15.455 38.963,12.89C38.902,12.684 38.833,12.481 38.756,12.28C37.795,9.776 35.351,8.08 30.462,4.69C25.572,1.299 23.128,-0.396 20.336,-0.494C20.112,-0.502 19.888,-0.502 19.664,-0.494C16.872,-0.396 14.428,1.299 9.538,4.69Z" fill="#FAFAFA"/>
<path d="M25.958,35.328L25.958,28.934C25.958,25.793 23.291,23.247 20,23.247C16.709,23.247 14.042,25.793 14.042,28.934L14.042,35.328C15.642,35.424 17.578,35.424 20,35.424C22.422,35.424 24.358,35.424 25.958,35.328Z" fill="#FAFAFA"/>
</svg>
