<svg width="112" height="112" viewBox="0 0 112 112" fill="none" xmlns="http://www.w3.org/2000/svg" xmlns:xlink="http://www.w3.org/1999/xlink">
<path d="M59.897,52.075L59.897,3.907C59.897,2.871 59.486,1.877 58.753,1.144C58.02,0.412 57.026,0 55.99,0C54.953,0 53.959,0.412 53.226,1.144C52.494,1.877 52.082,2.871 52.082,3.907L52.082,52.075L3.908,52.075C2.871,52.075 1.877,52.486 1.145,53.219C0.412,53.952 0,54.946 0,55.982C0,57.018 0.412,58.012 1.145,58.745C1.877,59.477 2.871,59.889 3.908,59.889L52.082,59.889L52.082,108.093C52.082,109.129 52.494,110.123 53.226,110.856C53.959,111.588 54.953,112 55.99,112C57.026,112 58.02,111.588 58.753,110.856C59.486,110.123 59.897,109.129 59.897,108.093L59.897,59.889L108.092,59.905C109.129,59.905 110.123,59.493 110.855,58.76C111.588,58.027 112,57.034 112,55.997C112,54.961 111.588,53.967 110.855,53.235C110.123,52.502 109.129,52.09 108.092,52.09L59.897,52.075Z" fill="#FFFFFF" fill-opacity="0.45"/>
</svg>
