<svg width="196" height="196" viewBox="0 0 196 196" fill="none" xmlns="http://www.w3.org/2000/svg" xmlns:xlink="http://www.w3.org/1999/xlink">
<path d="M98,0C44.04,0 0,44.041 0,98C0,151.96 44.04,196 98,196C151.96,196 196,151.96 196,98C196,44.041 151.96,0 98,0ZM27.377,98C27.377,77.765 36.105,59.117 49.992,46.421C55.547,41.263 65.069,42.85 69.036,49.595L93.636,92.049C96.016,96.016 96.016,100.777 93.636,104.745L69.036,147.198C65.069,154.34 55.547,155.53 49.595,149.976C36.105,136.486 27.377,118.235 27.377,98ZM126.964,146.405L102.364,103.951C99.984,99.984 99.984,95.223 102.364,91.255L126.964,48.802C130.931,42.057 140.057,40.47 146.008,45.628C159.895,58.324 168.623,76.972 168.623,97.206C168.623,117.441 159.895,136.089 146.008,148.785C140.057,155.134 130.931,153.547 126.964,146.405Z" fill="#FFFFFF"/>
</svg>
