<svg width="36" height="46" viewBox="0 0 36 46" fill="none" xmlns="http://www.w3.org/2000/svg" xmlns:xlink="http://www.w3.org/1999/xlink">
<path d="M16.808,34.559C15.639,34.559 14.519,34.095 13.692,33.269C12.866,32.443 12.402,31.322 12.402,30.153C12.402,27.708 14.363,25.747 16.808,25.747C17.976,25.747 19.097,26.212 19.923,27.038C20.75,27.864 21.214,28.985 21.214,30.153C21.214,31.322 20.75,32.443 19.923,33.269C19.097,34.095 17.976,34.559 16.808,34.559ZM30.026,41.168L30.026,19.139L3.59,19.139L3.59,41.168L30.026,41.168ZM30.026,14.733C31.194,14.733 32.315,15.197 33.141,16.023C33.967,16.849 34.432,17.97 34.432,19.139L34.432,41.168C34.432,42.337 33.967,43.457 33.141,44.284C32.315,45.11 31.194,45.574 30.026,45.574L3.59,45.574C2.422,45.574 1.301,45.11 0.475,44.284C-0.352,43.457 -0.816,42.337 -0.816,41.168L-0.816,19.139C-0.816,16.693 1.145,14.733 3.59,14.733L5.793,14.733L5.793,10.327C5.793,7.405 6.953,4.604 9.019,2.538C11.085,0.472 13.887,-0.688 16.808,-0.688C18.254,-0.688 19.687,-0.403 21.023,0.15C22.359,0.704 23.574,1.515 24.596,2.538C25.619,3.561 26.431,4.775 26.984,6.112C27.538,7.448 27.823,8.88 27.823,10.327L27.823,14.733L30.026,14.733ZM16.808,3.718C15.055,3.718 13.374,4.414 12.135,5.654C10.895,6.893 10.199,8.574 10.199,10.327L10.199,14.733L23.417,14.733L23.417,10.327C23.417,8.574 22.72,6.893 21.481,5.654C20.242,4.414 18.561,3.718 16.808,3.718Z" fill="#FFFFFF"/>
</svg>
