<svg width="34" height="34" viewBox="0 0 34 34" fill="none" xmlns="http://www.w3.org/2000/svg" xmlns:xlink="http://www.w3.org/1999/xlink">
<path d="M6.936,10.384C5.46,10.384 4.265,9.189 4.265,7.713C4.265,7.005 4.547,6.325 5.048,5.824C5.548,5.324 6.228,5.042 6.936,5.042C8.412,5.042 9.607,6.237 9.607,7.713C9.607,8.421 9.325,9.1 8.824,9.601C8.324,10.102 7.644,10.384 6.936,10.384L6.936,10.384ZM6.936,0.248C2.789,0.248 -0.529,3.566 -0.529,7.713C-0.529,13.303 6.936,21.58 6.936,21.58C6.936,21.58 14.4,13.303 14.4,7.713C14.4,3.566 11.083,0.248 6.936,0.248ZM25.182,10.384C24.474,10.384 23.795,10.102 23.294,9.601C22.793,9.1 22.512,8.421 22.512,7.713C22.512,7.362 22.581,7.015 22.715,6.691C22.849,6.367 23.046,6.072 23.294,5.824C23.542,5.576 23.836,5.38 24.16,5.246C24.484,5.111 24.832,5.042 25.182,5.042C25.533,5.042 25.88,5.111 26.204,5.246C26.528,5.38 26.823,5.576 27.071,5.824C27.319,6.072 27.516,6.367 27.65,6.691C27.784,7.015 27.853,7.362 27.853,7.713C27.853,8.421 27.572,9.1 27.071,9.601C26.57,10.102 25.891,10.384 25.182,10.384ZM25.182,0.248C21.036,0.248 17.718,3.566 17.718,7.713C17.718,13.303 25.182,21.58 25.182,21.58C25.182,21.58 32.647,13.303 32.647,7.713C32.647,3.566 29.329,0.248 25.182,0.248L25.182,0.248ZM25.182,23.471C23.076,23.471 21.201,24.798 20.505,26.789L11.614,26.789C11.174,25.547 10.26,24.531 9.073,23.962C7.885,23.393 6.52,23.318 5.277,23.753C4.659,23.97 4.09,24.306 3.603,24.742C3.115,25.179 2.718,25.707 2.434,26.297C2.151,26.887 1.986,27.527 1.951,28.181C1.915,28.835 2.008,29.489 2.225,30.106C2.67,31.351 3.59,32.369 4.784,32.938C5.977,33.506 7.347,33.58 8.595,33.142C10.005,32.644 11.083,31.516 11.614,30.106L20.521,30.106C21.434,32.694 24.287,34.054 26.841,33.142C27.461,32.928 28.032,32.593 28.522,32.157C29.012,31.722 29.411,31.194 29.696,30.603C29.981,30.013 30.147,29.372 30.184,28.717C30.22,28.063 30.127,27.407 29.91,26.789C29.197,24.798 27.306,23.471 25.182,23.471ZM25.182,30.936C24.523,30.936 23.89,30.674 23.423,30.207C22.956,29.74 22.694,29.108 22.694,28.448C22.694,27.788 22.956,27.155 23.423,26.688C23.89,26.222 24.523,25.959 25.182,25.959C25.842,25.959 26.475,26.222 26.942,26.688C27.408,27.155 27.671,27.788 27.671,28.448C27.671,29.108 27.408,29.74 26.942,30.207C26.475,30.674 25.842,30.936 25.182,30.936Z" fill="#FFFFFF"/>
</svg>
