<svg width="36" height="36" viewBox="0 0 36 36" fill="none" xmlns="http://www.w3.org/2000/svg" xmlns:xlink="http://www.w3.org/1999/xlink">
<path d="M22.125,1.25C22.125,0.525 22.741,-0.063 23.5,-0.063L25.333,-0.063C31.155,-0.063 35.875,4.443 35.875,10L35.875,11.75C35.875,12.475 35.259,13.063 34.5,13.063C33.741,13.063 33.125,12.475 33.125,11.75L33.125,10C33.125,5.892 29.637,2.563 25.333,2.563L23.5,2.563C22.741,2.563 22.125,1.975 22.125,1.25Z" fill="#FAFAFA"/>
<path d="M0.125,10C0.125,4.443 4.845,-0.063 10.667,-0.063L12.5,-0.063C13.259,-0.063 13.875,0.525 13.875,1.25C13.875,1.975 13.259,2.563 12.5,2.563L10.667,2.563C6.363,2.563 2.875,5.892 2.875,10L2.875,11.75C2.875,12.475 2.259,13.063 1.5,13.063C0.741,13.063 0.125,12.475 0.125,11.75L0.125,10Z" fill="#FAFAFA"/>
<path d="M5.625,10C5.625,7.342 7.882,5.188 10.667,5.188C13.451,5.188 15.708,7.342 15.708,10C15.708,12.658 13.451,14.813 10.667,14.813C7.882,14.813 5.625,12.658 5.625,10Z" fill="#FAFAFA"/>
<path d="M22.125,10C22.125,8.309 23.561,6.938 25.333,6.938C27.105,6.938 28.542,8.309 28.542,10C28.542,11.691 27.105,13.063 25.333,13.063C23.561,13.063 22.125,11.691 22.125,10Z" fill="#FAFAFA"/>
<path d="M20.292,24C20.292,21.342 22.549,19.188 25.333,19.188C28.118,19.188 30.375,21.342 30.375,24C30.375,26.658 28.118,28.813 25.333,28.813C22.549,28.813 20.292,26.658 20.292,24Z" fill="#FAFAFA"/>
<path d="M1.5,20.938C2.259,20.938 2.875,21.525 2.875,22.25L2.875,24C2.875,28.108 6.363,31.438 10.667,31.438L12.5,31.438C13.259,31.438 13.875,32.025 13.875,32.75C13.875,33.475 13.259,34.063 12.5,34.063L10.667,34.063C4.845,34.063 0.125,29.557 0.125,24L0.125,22.25C0.125,21.525 0.741,20.938 1.5,20.938Z" fill="#FAFAFA"/>
<path d="M34.5,20.938C35.259,20.938 35.875,21.525 35.875,22.25L35.875,24C35.875,29.557 31.155,34.063 25.333,34.063L23.5,34.063C22.741,34.063 22.125,33.475 22.125,32.75C22.125,32.025 22.741,31.438 23.5,31.438L25.333,31.438C29.637,31.438 33.125,28.108 33.125,24L33.125,22.25C33.125,21.525 33.741,20.938 34.5,20.938Z" fill="#FAFAFA"/>
</svg>
