<svg width="34" height="38" viewBox="0 0 34 38" fill="none" xmlns="http://www.w3.org/2000/svg" xmlns:xlink="http://www.w3.org/1999/xlink">
<path d="M5.979,25.764L25.145,6.598L22.473,3.926L3.307,23.092L3.307,25.764L5.979,25.764ZM7.546,29.543L-0.473,29.543L-0.473,21.525L21.137,-0.085C21.491,-0.439 21.972,-0.638 22.473,-0.638C22.974,-0.638 23.455,-0.439 23.809,-0.085L29.155,5.262C29.509,5.616 29.708,6.097 29.708,6.598C29.708,7.099 29.509,7.579 29.155,7.934L7.546,29.543L7.546,29.543ZM-0.473,33.323L33.543,33.323L33.543,37.102L-0.473,37.102L-0.473,33.323Z" fill="#FEFEFE"/>
</svg>
