<svg width="30" height="38" viewBox="0 0 30 38" fill="none" xmlns="http://www.w3.org/2000/svg" xmlns:xlink="http://www.w3.org/1999/xlink">
<path d="M14,0.188C9.191,0.188 5.292,3.909 5.292,8.5C5.292,13.091 9.191,16.813 14,16.813C18.81,16.813 22.708,13.091 22.708,8.5C22.708,3.909 18.81,0.188 14,0.188ZM8.042,8.5C8.042,5.359 10.709,2.813 14,2.813C17.291,2.813 19.958,5.359 19.958,8.5C19.958,11.641 17.291,14.188 14,14.188C10.709,14.188 8.042,11.641 8.042,8.5Z" clip-rule="evenodd" fill-rule="evenodd" fill="#FAFAFA"/>
<path d="M8.5,19.438C3.691,19.438 -0.208,23.159 -0.208,27.75C-0.208,32.341 3.691,36.063 8.5,36.063L19.5,36.063C24.31,36.063 28.208,32.341 28.208,27.75C28.208,23.159 24.31,19.438 19.5,19.438L8.5,19.438ZM2.542,27.75C2.542,24.609 5.209,22.063 8.5,22.063L19.5,22.063C22.791,22.063 25.458,24.609 25.458,27.75C25.458,30.891 22.791,33.438 19.5,33.438L8.5,33.438C5.209,33.438 2.542,30.891 2.542,27.75Z" clip-rule="evenodd" fill-rule="evenodd" fill="#FAFAFA"/>
</svg>
