<svg width="34" height="24" viewBox="0 0 34 24" fill="none" xmlns="http://www.w3.org/2000/svg" xmlns:xlink="http://www.w3.org/1999/xlink">
<path d="M33.017,11.098C32.969,10.99 31.803,8.403 29.21,5.81C25.756,2.355 21.393,0.53 16.59,0.53C11.788,0.53 7.424,2.355 3.97,5.81C1.377,8.403 0.206,10.994 0.163,11.098C0.1,11.239 0.068,11.392 0.068,11.546C0.068,11.7 0.1,11.853 0.163,11.993C0.211,12.102 1.377,14.688 3.97,17.281C7.424,20.734 11.788,22.559 16.59,22.559C21.393,22.559 25.756,20.734 29.21,17.281C31.803,14.688 32.969,12.102 33.017,11.993C33.08,11.853 33.112,11.7 33.112,11.546C33.112,11.392 33.08,11.239 33.017,11.098ZM16.59,20.356C12.352,20.356 8.65,18.816 5.585,15.778C4.327,14.528 3.257,13.102 2.409,11.545C3.257,9.987 4.327,8.561 5.585,7.311C8.65,4.273 12.352,2.733 16.59,2.733C20.828,2.733 24.53,4.273 27.595,7.311C28.855,8.561 29.928,9.987 30.779,11.545C29.786,13.398 25.461,20.356 16.59,20.356ZM16.59,4.936C15.283,4.936 14.005,5.323 12.918,6.049C11.832,6.776 10.985,7.808 10.484,9.015C9.984,10.223 9.853,11.552 10.108,12.834C10.363,14.116 10.993,15.293 11.917,16.218C12.841,17.142 14.019,17.771 15.301,18.026C16.583,18.281 17.912,18.151 19.119,17.65C20.327,17.15 21.359,16.303 22.085,15.216C22.811,14.129 23.199,12.852 23.199,11.545C23.197,9.792 22.5,8.112 21.261,6.873C20.022,5.634 18.342,4.937 16.59,4.936ZM16.59,15.95C15.719,15.95 14.867,15.692 14.142,15.208C13.418,14.724 12.853,14.036 12.52,13.231C12.186,12.426 12.099,11.54 12.269,10.685C12.439,9.83 12.858,9.045 13.475,8.429C14.091,7.813 14.876,7.393 15.731,7.223C16.585,7.053 17.471,7.14 18.276,7.474C19.081,7.807 19.769,8.372 20.253,9.097C20.738,9.821 20.996,10.673 20.996,11.545C20.996,12.713 20.532,13.834 19.706,14.66C18.879,15.486 17.759,15.95 16.59,15.95Z" fill="#000000" fill-opacity="0.7"/>
</svg>
