<svg width="134" height="110" viewBox="0 0 134 110" fill="none" xmlns="http://www.w3.org/2000/svg" xmlns:xlink="http://www.w3.org/1999/xlink">
<path d="M74.258,27.142L89.193,36.19L74.258,45.237L74.258,27.142ZM74.258,82.857L89.193,73.81L74.258,64.763L74.258,82.857ZM58.255,55.062L25.819,35.289L35.205,29.604L61.025,45.237L61.025,7.755L107.976,36.19L77.027,55.069L108.181,73.941L61.24,102.382L61.24,64.763L35.205,80.396L25.819,74.711L58.255,55.069L58.255,55.062ZM66.994,110C106.694,110 134,98.622 134,54.931C134,11.378 106.694,0 67.006,0C27.318,0 0,11.378 0,55.069C0,98.615 27.318,110 67.006,110L66.994,110Z" clip-rule="evenodd" fill-rule="evenodd" fill="url(#pf_0_1_1074)"/>
<defs>
<radialGradient id="pf_0_1_1074" cx="0" cy="0" r="1" gradientUnits="userSpaceOnUse" gradientTransform="matrix(0 27.5 -33.5 0 33.5 27.5)">
<stop stop-color="#FFFFFF"/>
<stop offset="0.06" stop-color="#FBFDFB" stop-opacity="0.973"/>
<stop offset="1" stop-color="#BEDCB8" stop-opacity="0"/>
<stop offset="1" stop-color="#E2E2E2" stop-opacity="0.4"/>
</radialGradient>
</defs>
</svg>
