<svg width="36" height="38" viewBox="0 0 36 38" fill="none" xmlns="http://www.w3.org/2000/svg" xmlns:xlink="http://www.w3.org/1999/xlink">
<path d="M23.852,0.189C22.041,0.156 20.028,0.736 16.723,1.688L16.292,1.812C14.998,2.184 14.202,2.414 13.465,2.742C11.942,3.42 10.611,4.409 9.575,5.634C9.074,6.226 8.667,6.891 8.005,7.973L3.318,15.631C1.826,18.069 0.915,19.557 0.566,21.019C-0.206,24.251 0.811,27.623 3.287,30.038C4.407,31.131 6.024,31.983 8.673,33.379L9.175,33.644C11.823,35.041 13.44,35.893 15.037,36.232C18.565,36.982 22.272,36.101 24.952,33.874C26.165,32.867 27.12,31.403 28.687,29.004L33.607,21.469C34.302,20.405 34.729,19.75 35.041,19.058C35.684,17.626 35.957,16.079 35.839,14.535C35.781,13.789 35.601,13.045 35.307,11.835L35.209,11.433C34.459,8.344 34.003,6.462 33.066,5.046C31.111,2.091 27.633,0.257 23.852,0.189ZM17.27,4.283C20.993,3.211 22.519,2.79 23.795,2.813C26.59,2.864 29.16,4.219 30.605,6.403C31.266,7.401 31.629,8.818 32.474,12.298C32.802,13.646 32.93,14.19 32.97,14.719C33.058,15.86 32.856,17.003 32.381,18.061C32.16,18.551 31.851,19.032 31.077,20.218L26.365,27.432C24.603,30.131 23.872,31.222 23.017,31.933C21.036,33.578 18.297,34.23 15.689,33.675C14.562,33.436 13.341,32.809 10.361,31.238C7.382,29.668 6.176,29.015 5.386,28.244C3.556,26.459 2.804,23.967 3.375,21.578C3.621,20.547 4.291,19.423 5.969,16.681L10.457,9.348C11.194,8.143 11.495,7.658 11.85,7.239C12.616,6.334 13.6,5.602 14.725,5.101C15.247,4.869 15.828,4.698 17.27,4.283Z" clip-rule="evenodd" fill-rule="evenodd" fill="#FAFAFA"/>
<path d="M17.575,10.611C16.252,12.703 17.037,15.379 19.329,16.587C21.621,17.795 24.552,17.078 25.875,14.986C27.198,12.893 26.413,10.218 24.121,9.009C21.829,7.801 18.899,8.518 17.575,10.611ZM20.065,11.923C19.536,12.76 19.85,13.831 20.767,14.314C21.684,14.797 22.856,14.51 23.385,13.673C23.914,12.836 23.6,11.766 22.684,11.283C21.767,10.8 20.594,11.086 20.065,11.923Z" clip-rule="evenodd" fill-rule="evenodd" fill="#FAFAFA"/>
</svg>
