<svg width="54" height="54" viewBox="0 0 54 54" fill="none" xmlns="http://www.w3.org/2000/svg" xmlns:xlink="http://www.w3.org/1999/xlink">
<path d="M44.886,45.307L37.052,45.307L37.052,33.038C37.052,30.113 37,26.347 32.978,26.347C28.898,26.347 28.273,29.534 28.273,32.825L28.273,45.306L20.44,45.306L20.44,20.077L27.96,20.077L27.96,23.525L28.065,23.525C28.818,22.238 29.905,21.18 31.212,20.462C32.519,19.744 33.996,19.394 35.485,19.45C43.425,19.45 44.889,24.672 44.889,31.467L44.886,45.307ZM11.6,16.629C9.089,16.629 7.054,14.594 7.053,12.083C7.053,9.573 9.088,7.537 11.599,7.536C14.109,7.536 16.145,9.571 16.145,12.082C16.146,13.287 15.667,14.444 14.815,15.297C13.962,16.149 12.806,16.629 11.6,16.629ZM15.517,45.307L7.675,45.307L7.675,20.077L15.517,20.077L15.517,45.307L15.517,45.307ZM48.791,0.261L3.739,0.261C1.609,0.237 -0.137,1.943 -0.163,4.072L-0.163,49.313C-0.138,51.443 1.608,53.151 3.738,53.128L48.791,53.128C50.926,53.155 52.679,51.447 52.708,49.313L52.708,4.069C52.678,1.935 50.925,0.23 48.791,0.258Z" fill="#0A66C2"/>
</svg>
